<svg width="40" height="40" viewBox="0 0 40 40" xmlns="http://www.w3.org/2000/svg"><g fill="none" fill-rule="evenodd"><path d="M4 0h27.178a4 4 0 0 1 3.83 2.846l4.821 16a4 4 0 0 1 0 2.308l-4.821 16A4 4 0 0 1 31.178 40H4a4 4 0 0 1-4-4V4a4 4 0 0 1 4-4z" fill="#FFE033"/><g stroke="#443C0F"><path d="M17.857 19.143c0 .76-1.143 1.455-1.143 2.547 0 .62.499.81 1.143.81H19c1.126 0 6.08-4.542 5.142-6.99" stroke-linejoin="round"/><path d="M25.189 23.41a1.714 1.714 0 1 1-3.189.875c0-.182.132-.617.333-.798" stroke-linecap="round" stroke-linejoin="round"/><path d="M22.015 14.005c2.774.035 4.825 7.489 4.825 9.081 0 .296-.188.574-.563.835-.672-.614-.873-.509-1.162-.509m-3.1.694c-.282.462-2.825.393-3.252.394M17.686 19.605l-4.235-.118a.736.736 0 0 1-.737-.736v-.194c0-.425.39-1.106.814-1.08l3.969.551c.388.025.477.38.477.77 0 .407.119.807-.288.807z"/><path d="M12.525 22.729c-.091.05-.212.144-.36.282-.16.162-.248.254-.263.276-.206.281-.33.624-.33.999a1.714 1.714 0 1 0 3.428 0" stroke-linecap="round"/><path d="M13.286 19.143c0 1.143-2.286 1.647-2.286 3.655 0 0 .428.292.946.52m3.066.977c.538.125 1.067.205 1.542.205h3.205M22.043 14H20"/></g></g></svg>