<svg xmlns="http://www.w3.org/2000/svg" width="20" height="20" viewBox="0 0 20 20"><g fill="none" fill-rule="evenodd"><path d="M0 0h20v20H0z"/><g stroke="#000"><path stroke-linejoin="round" d="M8.857 9.143c0 .76-1.143 1.455-1.143 2.547 0 .62.499.81 1.143.81H10c1.126 0 6.08-4.542 5.142-6.99"/><path stroke-linecap="round" stroke-linejoin="round" d="M16.189 13.41a1.714 1.714 0 1 1-3.189.875c0-.182.132-.617.333-.798"/><path d="M13.015 4.005c2.774.035 4.825 7.489 4.825 9.081 0 .296-.188.574-.563.835-.672-.614-.873-.509-1.162-.509m-3.1.694c-.282.462-2.825.393-3.252.394M8.686 9.605L4.45 9.487a.736.736 0 0 1-.737-.736v-.194c0-.425.39-1.106.814-1.08l3.969.551c.388.025.477.38.477.77 0 .407.119.807-.288.807z"/><path stroke-linecap="round" d="M3.525 12.729c-.091.05-.212.144-.36.282-.16.162-.248.254-.263.276a1.68 1.68 0 0 0-.33.999 1.714 1.714 0 1 0 3.428 0"/><path d="M4.286 9.143C4.286 10.286 2 10.79 2 12.798c0 0 .428.292.946.52m3.066.977c.538.125 1.067.205 1.542.205h3.205M13.043 4H11"/></g></g></svg>