<svg width="24" height="24" viewBox="0 0 24 24" fill="none" xmlns="http://www.w3.org/2000/svg">
<path fill-rule="evenodd" clip-rule="evenodd" d="M7 10C7 7.24357 9.24357 5 12 5C14.7564 5 17 7.24357 17 10C17 12.7564 14.7564 15 12 15C9.24357 15 7 12.7564 7 10ZM20.4805 18.4805C20.7827 18.1783 20.7827 17.6882 20.4805 17.386L17.4037 14.3093C18.3581 13.1173 18.9324 11.6087 18.9324 9.96622C18.9324 6.12474 15.8077 3 11.9662 3C8.12474 3 5 6.12474 5 9.96622C5 13.8077 8.12474 16.9324 11.9662 16.9324C13.6087 16.9324 15.1173 16.3581 16.3093 15.4037L19.386 18.4805C19.6882 18.7827 20.1783 18.7827 20.4805 18.4805Z" fill="black"/>
</svg>
