<svg width="24" height="24" viewBox="0 0 24 24" fill="none" xmlns="http://www.w3.org/2000/svg">
<path fill-rule="evenodd" clip-rule="evenodd" d="M14.126 15C14.5701 13.2748 16.1362 12 18 12C19.8638 12 21.4299 13.2748 21.874 15H22C22.5523 15 23 15.4477 23 16C23 16.5523 22.5523 17 22 17H21.874C21.4299 18.7252 19.8638 20 18 20C16.1362 20 14.5701 18.7252 14.126 17H2C1.44772 17 1 16.5523 1 16C1 15.4477 1.44772 15 2 15H14.126ZM2.12602 6C2.57006 4.27477 4.13616 3 6 3C7.86384 3 9.42994 4.27477 9.87398 6H22C22.5523 6 23 6.44772 23 7C23 7.55228 22.5523 8 22 8H9.87398C9.42994 9.72523 7.86384 11 6 11C4.13616 11 2.57006 9.72523 2.12602 8H2C1.44772 8 1 7.55228 1 7C1 6.44772 1.44772 6 2 6H2.12602ZM18 18.5C19.3807 18.5 20.5 17.3807 20.5 16C20.5 14.6193 19.3807 13.5 18 13.5C16.6193 13.5 15.5 14.6193 15.5 16C15.5 17.3807 16.6193 18.5 18 18.5ZM6 9.5C7.38071 9.5 8.5 8.38071 8.5 7C8.5 5.61929 7.38071 4.5 6 4.5C4.61929 4.5 3.5 5.61929 3.5 7C3.5 8.38071 4.61929 9.5 6 9.5Z" fill="#21201F"/>
</svg>
