<svg width="47" height="47" viewBox="0 0 47 47" fill="none" xmlns="http://www.w3.org/2000/svg" class="injected-svg" data-src="./images/check-icon-filled.6cab9b11.svg" xmlns:xlink="http://www.w3.org/1999/xlink">
<path fill-rule="evenodd" clip-rule="evenodd" d="M46.1203 23.5C46.1203 36.2515 35.7811 46.625 23.074 46.625C10.3647 46.625 0.0255127 36.2515 0.0255127 23.5C0.0255127 10.7485 10.3647 0.375 23.074 0.375C35.7811 0.375 46.1203 10.7485 46.1203 23.5ZM32.0478 17.2235C32.5566 17.7318 32.5566 18.563 32.0478 19.0735L21.3781 29.7764C21.1237 30.0317 20.791 30.1604 20.4561 30.1604C20.1235 30.1604 19.7908 30.0317 19.5364 29.7764L14.1004 24.3224C13.5894 23.8141 13.5894 22.9829 14.1004 22.4724C14.6092 21.9619 15.4333 21.9619 15.9421 22.4724L20.4561 26.9992L30.2039 17.2235C30.7127 16.713 31.5368 16.713 32.0478 17.2235Z" fill="#007147"></path>
</svg>