<svg width="120" height="120" viewBox="0 0 120 120" fill="none" xmlns="http://www.w3.org/2000/svg" class="injected-svg" data-src="./images/check-icon.6e722217.svg" xmlns:xlink="http://www.w3.org/1999/xlink">
<path fill-rule="evenodd" clip-rule="evenodd" d="M80.5133 55C80.5133 43.7924 71.3439 34.6777 60.0741 34.6777C48.8021 34.6777 39.6327 43.7924 39.6327 55C39.6327 66.2075 48.8021 75.3223 60.0741 75.3223C71.3439 75.3223 80.5133 66.2075 80.5133 55ZM83.1204 55C83.1204 67.6366 72.7812 77.9166 60.0741 77.9166C47.3648 77.9166 37.0256 67.6366 37.0256 55C37.0256 42.3634 47.3648 32.0833 60.0741 32.0833C72.7812 32.0833 83.1204 42.3634 83.1204 55ZM69.0479 48.78C69.5567 49.2837 69.5567 50.1074 69.0479 50.6133L58.3782 61.2198C58.1238 61.4728 57.7911 61.6003 57.4562 61.6003C57.1236 61.6003 56.7909 61.4728 56.5365 61.2198L51.1005 55.815C50.5895 55.3112 50.5895 54.4875 51.1005 53.9816C51.6093 53.4757 52.4334 53.4757 52.9422 53.9816L57.4562 58.4677L67.204 48.78C67.7128 48.2741 68.5369 48.2741 69.0479 48.78Z" fill="#A3A7AA"></path>
<g clip-path="url(#clip0-1)">
<path d="M78.9567 94.9567C77.8047 94.9567 76.8698 94.0217 76.8698 92.8697V62.2609C76.8698 58.8105 79.6772 56 83.1306 56C86.5836 56 89.3915 58.8105 89.3915 62.2609V90.0868C89.3915 91.2388 88.4565 92.1737 87.3045 92.1737C86.1525 92.1737 85.2176 91.2388 85.2176 90.0868V62.2609C85.2176 61.1114 84.2826 60.1739 83.1306 60.1739C81.9786 60.1739 81.0437 61.1114 81.0437 62.2609V92.8697C81.0437 94.0217 80.1087 94.9567 78.9567 94.9567Z" fill="#383836"></path>
<path d="M95.6524 92.1737C94.5004 92.1737 93.5655 91.2388 93.5655 90.0868V78.9565C93.5655 77.807 92.6305 76.8695 91.4785 76.8695C90.3265 76.8695 89.3916 77.807 89.3916 78.9565C89.3916 80.1085 88.4566 81.0434 87.3046 81.0434C86.1526 81.0434 85.2177 80.1085 85.2177 78.9565C85.2177 75.5061 88.0251 72.6956 91.4785 72.6956C94.9315 72.6956 97.7394 75.5061 97.7394 78.9565V90.0868C97.7394 91.2388 96.8044 92.1737 95.6524 92.1737Z" fill="#383836"></path>
<path d="M104 92.1737C102.848 92.1737 101.913 91.2388 101.913 90.0868V81.739C101.913 80.59 100.978 79.652 99.8264 79.652C98.6744 79.652 97.7395 80.59 97.7395 81.739C97.7395 82.891 96.8045 83.8259 95.6525 83.8259C94.5005 83.8259 93.5656 82.891 93.5656 81.739C93.5656 78.2886 96.373 75.4781 99.8264 75.4781C103.279 75.4781 106.087 78.2886 106.087 81.739V90.0868C106.087 91.2388 105.152 92.1737 104 92.1737Z" fill="#383836"></path>
<path d="M101.217 120H85.8657C81.3163 120 77.0058 117.596 74.6157 113.719L62.553 94.1608C62.5505 94.1552 62.5505 94.1522 62.5474 94.1496C61.9049 93.1673 61.5651 92.0015 61.5651 90.7828C61.5651 87.3324 64.373 84.5219 67.8259 84.5219C68.9754 84.5219 70.0744 84.822 71.0175 85.3957C71.0511 85.4151 71.0848 85.437 71.1209 85.4538L80.0725 91.0997C81.0437 91.7203 81.3356 93.0088 80.7206 93.9825C80.1057 94.9567 78.8146 95.2461 77.8409 94.6337L68.9698 89.0352C68.9362 89.0158 68.9056 88.9959 68.875 88.9766C68.5856 88.7957 68.2127 88.6958 67.8259 88.6958C66.6739 88.6958 65.739 89.6333 65.739 90.7828C65.739 91.1665 65.8363 91.5313 66.009 91.8207C66.0284 91.8482 66.0452 91.8762 66.062 91.9012L78.1665 111.53C79.8025 114.179 82.7521 115.826 85.8657 115.826H101.217C106.204 115.826 110.261 111.769 110.261 106.782V84.5219C110.261 83.3725 109.326 82.435 108.174 82.435C107.022 82.435 106.087 83.3725 106.087 84.5219C106.087 85.6739 105.152 86.6089 104 86.6089C102.848 86.6089 101.913 85.6739 101.913 84.5219C101.913 81.0715 104.721 78.261 108.174 78.261C111.627 78.261 114.435 81.0715 114.435 84.5219V106.782C114.435 114.071 108.505 120 101.217 120Z" fill="#383836"></path>
</g>
<defs>
<clipPath id="clip0-1">
<rect x="56.0001" y="56" width="64" height="64" fill="white"></rect>
</clipPath>
</defs>
</svg>