<svg width="47" height="47" viewBox="0 0 47 47" fill="none" xmlns="http://www.w3.org/2000/svg" class="injected-svg" data-src="./images/spinner.35d534cc.svg" xmlns:xlink="http://www.w3.org/1999/xlink">
<path fill-rule="evenodd" clip-rule="evenodd" d="M31.7227 13.0375C32.1334 13.0375 32.5375 12.852 32.7959 12.4986L37.1196 6.62136C37.5524 6.03669 37.4199 5.21641 36.8281 4.79318C36.2341 4.36558 35.406 4.49648 34.9776 5.08333L30.6539 10.9606C30.2233 11.5431 30.3536 12.3633 30.9454 12.7888C31.1817 12.9567 31.4533 13.0375 31.7227 13.0375ZM35.8297 19.4094C36.0108 19.9635 36.5297 20.3148 37.0884 20.3148C37.2231 20.3148 37.3622 20.293 37.4969 20.2493L44.4926 18.0023C45.1904 17.7798 45.5702 17.0424 45.3427 16.3552C45.1197 15.6658 44.3667 15.2862 43.6733 15.5153L36.6777 17.7601C35.9821 17.9848 35.6023 18.72 35.8297 19.4094ZM44.4926 28.9955L37.4969 26.7507C36.8058 26.5238 36.0527 26.9034 35.8297 27.5906C35.6023 28.2778 35.9821 29.0152 36.6777 29.2399L43.6733 31.4848C43.8102 31.5306 43.9472 31.5502 44.0841 31.5502C44.6427 31.5502 45.1617 31.1968 45.3427 30.6448C45.5702 29.9576 45.1904 29.2202 44.4926 28.9955ZM32.7959 34.5014C32.3653 33.9146 31.5372 33.7881 30.9454 34.2113C30.3536 34.6345 30.2233 35.4548 30.6539 36.0395L34.9776 41.9167C35.236 42.2701 35.6401 42.4556 36.0508 42.4556C36.3202 42.4556 36.5918 42.3749 36.8281 42.2069C37.4199 41.7836 37.5524 40.9634 37.1196 40.3787L32.7959 34.5014ZM23.0906 36.74C22.3597 36.74 21.7657 37.3268 21.7657 38.049V45.3159C21.7657 46.038 22.3597 46.6248 23.0906 46.6248C23.8216 46.6248 24.4156 46.038 24.4156 45.3159V38.049C24.4156 37.3268 23.8216 36.74 23.0906 36.74ZM13.349 34.5014L9.02532 40.3787C8.5925 40.9634 8.725 41.7836 9.31901 42.2069C9.55308 42.3749 9.82469 42.4556 10.0941 42.4556C10.5048 42.4556 10.9089 42.2701 11.1673 41.9167L15.491 36.0395C15.9216 35.4548 15.7913 34.6345 15.1995 34.2113C14.6055 33.7881 13.7752 33.9146 13.349 34.5014ZM10.328 27.5903C10.1028 26.9009 9.35417 26.5256 8.65858 26.7504L1.66292 28.9952C0.965125 29.2199 0.585311 29.9573 0.812758 30.6445C0.993832 31.1986 1.51276 31.5499 2.07145 31.5499C2.20836 31.5499 2.34527 31.5302 2.48218 31.4844L9.47783 29.2396C10.1734 29.0149 10.5532 28.2775 10.328 27.5903ZM1.66292 18.0023L8.65858 20.2493C8.79328 20.2929 8.9324 20.3148 9.0671 20.3148C9.62578 20.3148 10.1469 19.9613 10.328 19.4094C10.5532 18.72 10.1734 17.9848 9.47783 17.7601L2.48218 15.5152C1.78438 15.2862 1.038 15.6679 0.812758 16.3552C0.585311 17.0424 0.965125 17.7797 1.66292 18.0023ZM11.1673 5.08333C10.7389 4.49648 9.91081 4.36558 9.31901 4.79318C8.725 5.21641 8.5925 6.03669 9.02532 6.62136L13.349 12.4986C13.6074 12.852 14.0137 13.0375 14.4222 13.0375C14.6916 13.0375 14.9632 12.9567 15.1995 12.7888C15.7913 12.3633 15.9216 11.5431 15.491 10.9606L11.1673 5.08333ZM24.4156 1.68396V8.95088C24.4156 9.67299 23.8216 10.2598 23.0906 10.2598C22.3597 10.2598 21.7657 9.67299 21.7657 8.95088V1.68396C21.7657 0.961851 22.3597 0.375 23.0906 0.375C23.8216 0.375 24.4156 0.961851 24.4156 1.68396Z" fill="#626262"></path>
</svg>