<svg width="311" height="80" viewBox="0 0 311 80" fill="none" xmlns="http://www.w3.org/2000/svg">
<path d="M0 0H14.5497V80H0V0ZM16.3684 80H18.1871V0H16.3684V80ZM20.0058 80H21.8246V0H20.0058V80ZM23.6433 80H25.462V0H23.6433V80ZM30.9181 80H38.193V76.6667H40.0117V73.3333H38.193V66.6667H36.3743V70H34.5556V73.3333H32.7368V66.6667H36.3743V63.3333H38.193V50H36.3743V40H41.8304V36.6667H40.0117V33.3333H38.193V36.6667H36.3743V33.3333H34.5556V30H36.3743V33.3333H38.193V30H41.8304V23.3333H45.4678V26.6667H47.2865V20H49.1053V23.3333H56.3801V20H50.924V16.6667H45.4678V13.3333H43.6491V10H41.8304V13.3333H40.0117V6.66667H38.193V10H36.3743V6.66667H38.193V3.33333H36.3743V0H30.9181V80ZM34.5556 6.66667V10H32.7368V6.66667H34.5556ZM34.5556 13.3333V16.6667H32.7368V13.3333H34.5556ZM38.193 13.3333V16.6667H36.3743V13.3333H38.193ZM40.0117 16.6667V26.6667H38.193V23.3333H36.3743V20H38.193V16.6667H40.0117ZM43.6491 16.6667V20H41.8304V16.6667H43.6491ZM34.5556 20V23.3333H32.7368V20H34.5556ZM34.5556 40V43.3333H32.7368V40H34.5556ZM34.5556 46.6667V50H32.7368V46.6667H34.5556ZM38.193 3.33333H40.0117V0H38.193V3.33333ZM41.8304 3.33333H43.6491V0H41.8304V3.33333ZM49.1053 3.33333H50.924V6.66667H47.2865V3.33333H43.6491V6.66667H45.4678V10H47.2865V13.3333H49.1053V10H50.924V16.6667H52.7427V13.3333H60.0175V10H52.7427V6.66667H54.5614V0H49.1053V3.33333ZM61.8363 80H63.655V70H65.4737V66.6667H63.655V63.3333H67.2924V60H69.1111V63.3333H67.2924V66.6667H70.9298V56.6667H69.1111V53.3333H63.655V46.6667H67.2924V40H63.655V36.6667H67.2924V30H69.1111V26.6667H67.2924V20H63.655V16.6667H67.2924V10H65.4737V13.3333H63.655V0H61.8363V80ZM65.4737 56.6667V60H63.655V56.6667H65.4737ZM65.4737 6.66667H67.2924V10H70.9298V3.33333H67.2924V0H65.4737V6.66667ZM72.7485 16.6667H69.1111V23.3333H70.9298V30H72.7485V36.6667H76.386V33.3333H78.2047V30H76.386V26.6667H72.7485V20H74.5672V23.3333H76.386V16.6667H74.5672V13.3333H78.2047V10H76.386V3.33333H74.5672V0H72.7485V16.6667ZM81.8421 3.33333H80.0234V6.66667H83.6608V10H80.0234V13.3333H78.2047V23.3333H80.0234V26.6667H81.8421V43.3333H78.2047V46.6667H81.8421V50H78.2047V53.3333H81.8421V60H83.6608V63.3333H87.2982V66.6667H89.117V60H87.2982V56.6667H83.6608V40H89.117V36.6667H83.6608V30H89.117V33.3333H90.9357V26.6667H89.117V23.3333H87.2982V26.6667H83.6608V23.3333H81.8421V20H80.0234V16.6667H81.8421V13.3333H85.4795V10H90.9357V3.33333H83.6608V0H81.8421V3.33333ZM92.7544 80H96.3918V76.6667H94.5731V73.3333H96.3918V76.6667H100.029V73.3333H98.2105V70H96.3918V60H94.5731V56.6667H100.029V60H98.2105V63.3333H100.029V70H101.848V73.3333H103.667V70H105.485V66.6667H107.304V70H105.485V76.6667H101.848V80H109.123V76.6667H110.942V80H112.76V76.6667H114.579V73.3333H116.398V76.6667H118.216V73.3333H121.854V70H120.035V66.6667H116.398V63.3333H118.216V60H116.398V56.6667H112.76V60H114.579V63.3333H112.76V66.6667H114.579V70H112.76V73.3333H110.942V70H109.123V66.6667H110.942V56.6667H112.76V53.3333H109.123V60H107.304V63.3333H103.667V66.6667H101.848V60H105.485V56.6667H107.304V53.3333H109.123V50H105.485V53.3333H103.667V56.6667H101.848V53.3333H100.029V50H105.485V46.6667H98.2105V50H96.3918V53.3333H94.5731V46.6667H96.3918V43.3333H94.5731V40H96.3918V36.6667H94.5731V30H96.3918V26.6667H94.5731V23.3333H96.3918V16.6667H98.2105V13.3333H96.3918V6.66667H98.2105V0H92.7544V80ZM100.029 6.66667H98.2105V10H100.029V20H101.848V23.3333H105.485V20H109.123V16.6667H107.304V13.3333H105.485V10H103.667V6.66667H101.848V3.33333H103.667V6.66667H107.304V3.33333H105.485V0H100.029V6.66667ZM103.667 13.3333V16.6667H101.848V13.3333H103.667ZM107.304 3.33333H110.942V0H107.304V3.33333ZM114.579 3.33333H118.216V0H114.579V3.33333ZM123.673 80H125.491V76.6667H130.947V70H132.766V73.3333H134.585V70H136.404V66.6667H143.678V60H147.316V63.3333H150.953V66.6667H149.134V70H147.316V66.6667H145.497V73.3333H147.316V76.6667H143.678V73.3333H141.86V70H140.041V76.6667H141.86V80H149.134V76.6667H150.953V73.3333H152.772V60H150.953V53.3333H152.772V46.6667H150.953V43.3333H149.134V46.6667H145.497V43.3333H149.134V36.6667H145.497V40H143.678V43.3333H140.041V40H138.222V46.6667H140.041V53.3333H134.585V56.6667H136.404V60H138.222V63.3333H134.585V66.6667H130.947V63.3333H132.766V60H130.947V53.3333H129.129V50H127.31V43.3333H129.129V40H134.585V36.6667H132.766V33.3333H129.129V36.6667H127.31V33.3333H125.491V20H130.947V23.3333H127.31V26.6667H132.766V30H134.585V23.3333H132.766V20H134.585V13.3333H136.404V10H134.585V6.66667H132.766V0H123.673V80ZM129.129 3.33333V6.66667H125.491V3.33333H129.129ZM129.129 10V13.3333H127.31V10H129.129ZM127.31 13.3333V16.6667H125.491V13.3333H127.31ZM143.678 46.6667V50H149.134V53.3333H147.316V56.6667H145.497V53.3333H141.86V46.6667H143.678ZM127.31 53.3333V56.6667H129.129V63.3333H127.31V60H125.491V53.3333H127.31ZM141.86 56.6667V60H140.041V56.6667H141.86ZM127.31 63.3333V66.6667H125.491V63.3333H127.31ZM129.129 66.6667V70H127.31V66.6667H129.129ZM134.585 3.33333H136.404V10H138.222V0H134.585V3.33333ZM140.041 10H138.222V13.3333H141.86V16.6667H140.041V20H141.86V23.3333H143.678V6.66667H149.134V13.3333H145.497V16.6667H149.134V20H150.953V16.6667H152.772V13.3333H150.953V0H143.678V3.33333H141.86V0H140.041V10ZM154.591 80H158.228V63.3333H156.409V60H158.228V56.6667H160.047V63.3333H161.865V60H163.684V63.3333H165.503V66.6667H163.684V63.3333H161.865V70H163.684V73.3333H161.865V76.6667H160.047V80H165.503V73.3333H167.322V66.6667H170.959V63.3333H167.322V60H165.503V56.6667H161.865V53.3333H160.047V50H161.865V46.6667H163.684V50H165.503V53.3333H167.322V60H169.14V56.6667H170.959V50H172.778V53.3333H176.415V50H174.596V46.6667H170.959V43.3333H169.14V46.6667H167.322V43.3333H169.14V40H167.322V36.6667H170.959V43.3333H172.778V40H176.415V43.3333H174.596V46.6667H176.415V50H178.234V46.6667H180.053V43.3333H181.871V40H180.053V36.6667H181.871V40H183.69V33.3333H180.053V26.6667H176.415V23.3333H172.778V26.6667H174.596V30H176.415V33.3333H178.234V36.6667H172.778V33.3333H170.959V26.6667H169.14V30H167.322V33.3333H165.503V30H163.684V26.6667H161.865V23.3333H160.047V20H161.865V23.3333H165.503V16.6667H163.684V13.3333H161.865V16.6667H156.409V13.3333H158.228V6.66667H161.865V3.33333H160.047V0H158.228V3.33333H156.409V0H154.591V80ZM160.047 26.6667V30H161.865V33.3333H160.047V36.6667H158.228V30H156.409V26.6667H160.047ZM163.684 33.3333V40H165.503V43.3333H161.865V33.3333H163.684ZM158.228 43.3333V46.6667H156.409V43.3333H158.228ZM167.322 6.66667H165.503V3.33333H163.684V10H165.503V13.3333H167.322V10H170.959V6.66667H169.14V3.33333H170.959V0H167.322V6.66667ZM180.053 3.33333H183.69V0H180.053V3.33333ZM185.509 80H187.327V76.6667H189.146V73.3333H187.327V63.3333H189.146V60H187.327V56.6667H192.784V53.3333H187.327V46.6667H194.602V43.3333H192.784V40H187.327V36.6667H192.784V33.3333H189.146V30H187.327V26.6667H190.965V23.3333H189.146V20H187.327V16.6667H189.146V10H194.602V13.3333H196.421V6.66667H194.602V3.33333H196.421V0H192.784V6.66667H189.146V3.33333H190.965V0H185.509V80ZM200.058 3.33333H198.24V13.3333H196.421V16.6667H201.877V20H203.696V16.6667H205.515V6.66667H203.696V3.33333H201.877V0H200.058V3.33333ZM201.877 6.66667V13.3333H200.058V6.66667H201.877ZM205.515 6.66667H207.333V3.33333H209.152V0H205.515V6.66667ZM216.427 80H218.246V76.6667H221.883V80H225.52V73.3333H218.246V66.6667H220.064V60H218.246V56.6667H225.52V50H223.702V53.3333H220.064V50H218.246V46.6667H221.883V43.3333H218.246V40H220.064V36.6667H223.702V43.3333H225.52V40H227.339V36.6667H225.52V33.3333H227.339V26.6667H223.702V23.3333H221.883V20H218.246V16.6667H220.064V13.3333H218.246V10H221.883V13.3333H223.702V3.33333H221.883V6.66667H220.064V0H216.427V80ZM220.064 26.6667V30H218.246V26.6667H220.064ZM223.702 30V33.3333H221.883V30H223.702ZM227.339 6.66667H230.977V10H238.251V6.66667H236.433V3.33333H234.614V0H232.795V3.33333H230.977V0H227.339V6.66667ZM238.251 3.33333H240.07V0H238.251V3.33333ZM247.345 80H252.801V76.6667H254.62V80H258.257V76.6667H256.439V66.6667H254.62V70H252.801V73.3333H250.982V66.6667H249.164V63.3333H250.982V56.6667H249.164V53.3333H250.982V50H249.164V46.6667H252.801V50H254.62V46.6667H256.439V43.3333H254.62V40H252.801V43.3333H250.982V40H252.801V33.3333H250.982V30H252.801V33.3333H254.62V26.6667H256.439V23.3333H252.801V20H250.982V23.3333H249.164V20H250.982V16.6667H252.801V10H254.62V16.6667H256.439V10H258.257V3.33333H256.439V0H247.345V80ZM258.257 3.33333H260.076V0H258.257V3.33333ZM261.895 3.33333H263.713V0H261.895V3.33333ZM267.351 3.33333H270.988V6.66667H272.807V10H274.626V6.66667H276.444V0H267.351V3.33333ZM278.263 80H290.994V0H278.263V80ZM292.813 80H294.632V0H292.813V80ZM300.088 80H301.906V0H300.088V80ZM303.725 80H305.544V0H303.725V80ZM309.181 80H311V0H309.181V80ZM40.0117 6.66667H41.8304V3.33333H40.0117V6.66667ZM118.216 6.66667H120.035V3.33333H118.216V6.66667ZM172.778 10H174.596V3.33333H172.778V10ZM240.07 10H238.251V13.3333H240.07V16.6667H241.889V20H240.07V23.3333H241.889V30H240.07V33.3333H241.889V36.6667H240.07V33.3333H238.251V40H245.526V33.3333H243.708V26.6667H245.526V16.6667H243.708V13.3333H241.889V6.66667H245.526V3.33333H240.07V10ZM260.076 13.3333H258.257V16.6667H256.439V23.3333H258.257V26.6667H260.076V23.3333H261.895V20H267.351V16.6667H263.713V13.3333H261.895V3.33333H260.076V13.3333ZM263.713 13.3333H269.17V10H267.351V6.66667H265.532V3.33333H263.713V13.3333ZM107.304 10H109.123V6.66667H107.304V10ZM110.942 10H112.76V16.6667H114.579V13.3333H116.398V6.66667H110.942V10ZM176.415 10H174.596V13.3333H167.322V16.6667H169.14V23.3333H170.959V16.6667H176.415V13.3333H178.234V10H180.053V6.66667H176.415V10ZM210.971 10H212.789V6.66667H210.971V10ZM225.52 13.3333H227.339V16.6667H225.52V23.3333H227.339V20H230.977V16.6667H234.614V13.3333H229.158V10H227.339V6.66667H225.52V13.3333ZM118.216 13.3333H120.035V10H118.216V13.3333ZM160.047 13.3333H161.865V10H160.047V13.3333ZM89.117 16.6667H90.9357V13.3333H89.117V16.6667ZM178.234 16.6667H176.415V20H178.234V23.3333H180.053V26.6667H183.69V23.3333H181.871V20H180.053V16.6667H181.871V13.3333H178.234V16.6667ZM190.965 16.6667H189.146V20H190.965V23.3333H192.784V20H194.602V23.3333H192.784V26.6667H194.602V30H196.421V23.3333H198.24V20H196.421V16.6667H192.784V13.3333H190.965V16.6667ZM209.152 16.6667H212.789V20H214.608V13.3333H209.152V16.6667ZM223.702 16.6667H225.52V13.3333H223.702V16.6667ZM270.988 16.6667H272.807V20H274.626V13.3333H270.988V16.6667ZM56.3801 20H58.1988V16.6667H56.3801V20ZM81.8421 20H83.6608V16.6667H81.8421V20ZM110.942 20H109.123V26.6667H110.942V30H109.123V33.3333H114.579V30H112.76V26.6667H114.579V30H116.398V23.3333H114.579V20H112.76V16.6667H110.942V20ZM116.398 20H118.216V16.6667H116.398V20ZM136.404 20H138.222V16.6667H136.404V20ZM181.871 20H183.69V16.6667H181.871V20ZM234.614 20H236.433V16.6667H234.614V20ZM252.801 20H254.62V16.6667H252.801V20ZM98.2105 23.3333H100.029V20H98.2105V23.3333ZM138.222 26.6667H140.041V20H138.222V26.6667ZM203.696 23.3333H200.058V26.6667H198.24V30H200.058V33.3333H201.877V26.6667H203.696V33.3333H201.877V40H203.696V36.6667H205.515V33.3333H207.333V30H212.789V26.6667H209.152V20H203.696V23.3333ZM207.333 23.3333V26.6667H205.515V23.3333H207.333ZM232.795 23.3333H234.614V20H232.795V23.3333ZM267.351 26.6667H265.532V23.3333H263.713V26.6667H261.895V30H260.076V36.6667H261.895V40H263.713V43.3333H265.532V40H267.351V43.3333H270.988V36.6667H265.532V30H267.351V33.3333H270.988V36.6667H274.626V30H269.17V26.6667H270.988V23.3333H272.807V20H267.351V26.6667ZM58.1988 30H52.7427V33.3333H54.5614V36.6667H56.3801V40H58.1988V36.6667H60.0175V23.3333H58.1988V30ZM105.485 26.6667H100.029V30H98.2105V40H100.029V33.3333H101.848V43.3333H103.667V40H105.485V36.6667H107.304V40H110.942V43.3333H112.76V40H118.216V33.3333H116.398V36.6667H109.123V33.3333H103.667V30H109.123V26.6667H107.304V23.3333H105.485V26.6667ZM120.035 26.6667H121.854V23.3333H120.035V26.6667ZM145.497 26.6667H143.678V30H141.86V33.3333H140.041V30H134.585V33.3333H138.222V36.6667H145.497V33.3333H147.316V30H150.953V26.6667H152.772V23.3333H145.497V26.6667ZM167.322 26.6667H169.14V23.3333H167.322V26.6667ZM229.158 30H230.977V23.3333H229.158V30ZM234.614 26.6667H238.251V23.3333H234.614V26.6667ZM43.6491 40H45.4678V36.6667H50.924V33.3333H49.1053V30H45.4678V26.6667H43.6491V40ZM49.1053 30H52.7427V26.6667H49.1053V30ZM78.2047 30H80.0234V26.6667H78.2047V30ZM140.041 30H141.86V26.6667H140.041V30ZM256.439 30H258.257V26.6667H256.439V30ZM274.626 30H276.444V26.6667H274.626V30ZM118.216 33.3333H120.035V30H118.216V33.3333ZM127.31 33.3333H129.129V30H127.31V33.3333ZM192.784 33.3333H194.602V30H192.784V33.3333ZM230.977 36.6667H232.795V30H230.977V36.6667ZM69.1111 36.6667H67.2924V40H69.1111V53.3333H70.9298V56.6667H72.7485V50H74.5672V46.6667H72.7485V43.3333H74.5672V40H70.9298V33.3333H69.1111V36.6667ZM149.134 36.6667H150.953V33.3333H149.134V36.6667ZM196.421 40H194.602V43.3333H198.24V36.6667H200.058V33.3333H196.421V40ZM212.789 36.6667H207.333V46.6667H205.515V50H203.696V46.6667H205.515V43.3333H201.877V40H200.058V53.3333H207.333V50H209.152V53.3333H210.971V56.6667H212.789V53.3333H214.608V43.3333H212.789V46.6667H210.971V43.3333H212.789V40H214.608V33.3333H212.789V36.6667ZM254.62 40H256.439V33.3333H254.62V40ZM50.924 43.3333H52.7427V40H54.5614V36.6667H50.924V43.3333ZM76.386 43.3333H78.2047V40H80.0234V36.6667H76.386V43.3333ZM136.404 40H138.222V36.6667H136.404V40ZM150.953 40H152.772V36.6667H150.953V40ZM232.795 40H234.614V36.6667H232.795V40ZM274.626 40H276.444V36.6667H274.626V40ZM45.4678 53.3333H49.1053V50H47.2865V46.6667H49.1053V43.3333H47.2865V40H45.4678V53.3333ZM120.035 50H121.854V40H120.035V50ZM134.585 43.3333H132.766V46.6667H136.404V40H134.585V43.3333ZM227.339 43.3333H229.158V40H227.339V43.3333ZM236.433 50H238.251V53.3333H236.433V56.6667H238.251V60H240.07V63.3333H245.526V60H243.708V56.6667H240.07V53.3333H243.708V56.6667H245.526V46.6667H243.708V43.3333H241.889V46.6667H240.07V43.3333H238.251V40H236.433V50ZM38.193 46.6667H40.0117V43.3333H38.193V46.6667ZM56.3801 46.6667H52.7427V50H50.924V53.3333H58.1988V56.6667H60.0175V46.6667H58.1988V43.3333H56.3801V46.6667ZM87.2982 50H85.4795V53.3333H89.117V50H90.9357V46.6667H89.117V43.3333H87.2982V50ZM107.304 46.6667H109.123V43.3333H107.304V46.6667ZM112.76 46.6667H118.216V43.3333H112.76V46.6667ZM230.977 46.6667H232.795V43.3333H230.977V46.6667ZM258.257 46.6667H260.076V43.3333H258.257V46.6667ZM265.532 50H263.713V53.3333H261.895V50H258.257V63.3333H260.076V56.6667H261.895V60H267.351V63.3333H260.076V70H258.257V73.3333H260.076V76.6667H261.895V73.3333H263.713V66.6667H265.532V70H267.351V73.3333H270.988V76.6667H267.351V80H276.444V76.6667H274.626V73.3333H272.807V70H276.444V63.3333H272.807V66.6667H269.17V56.6667H267.351V53.3333H269.17V50H272.807V46.6667H267.351V43.3333H265.532V50ZM272.807 46.6667H276.444V43.3333H272.807V46.6667ZM110.942 50H112.76V46.6667H110.942V50ZM130.947 53.3333H134.585V50H132.766V46.6667H130.947V53.3333ZM180.053 50H178.234V53.3333H176.415V56.6667H180.053V53.3333H181.871V50H183.69V46.6667H180.053V50ZM194.602 50H192.784V53.3333H194.602V56.6667H192.784V60H190.965V63.3333H194.602V60H200.058V53.3333H198.24V56.6667H196.421V46.6667H194.602V50ZM221.883 50H223.702V46.6667H221.883V50ZM227.339 50H230.977V46.6667H227.339V50ZM256.439 50H258.257V46.6667H256.439V50ZM41.8304 53.3333H43.6491V50H41.8304V53.3333ZM114.579 53.3333H116.398V50H114.579V53.3333ZM230.977 53.3333H227.339V56.6667H225.52V60H229.158V56.6667H232.795V53.3333H236.433V50H230.977V53.3333ZM254.62 53.3333H256.439V50H254.62V53.3333ZM40.0117 56.6667H41.8304V53.3333H40.0117V56.6667ZM49.1053 56.6667H45.4678V63.3333H47.2865V60H52.7427V56.6667H50.924V53.3333H49.1053V56.6667ZM89.117 56.6667H90.9357V53.3333H89.117V56.6667ZM116.398 56.6667H120.035V53.3333H116.398V56.6667ZM181.871 56.6667H183.69V53.3333H181.871V56.6667ZM250.982 56.6667H252.801V53.3333H250.982V56.6667ZM269.17 56.6667H272.807V53.3333H269.17V56.6667ZM41.8304 60H40.0117V63.3333H43.6491V56.6667H41.8304V60ZM54.5614 63.3333H56.3801V66.6667H60.0175V60H56.3801V56.6667H54.5614V63.3333ZM72.7485 60H76.386V56.6667H72.7485V60ZM170.959 60H174.596V63.3333H178.234V60H176.415V56.6667H170.959V60ZM201.877 60H200.058V63.3333H194.602V66.6667H200.058V70H198.24V73.3333H196.421V76.6667H194.602V80H200.058V73.3333H203.696V80H214.608V70H209.152V73.3333H207.333V66.6667H203.696V63.3333H205.515V56.6667H201.877V60ZM212.789 73.3333V76.6667H210.971V73.3333H212.789ZM207.333 60H209.152V63.3333H207.333V66.6667H210.971V63.3333H214.608V60H210.971V56.6667H207.333V60ZM232.795 63.3333H236.433V60H234.614V56.6667H232.795V63.3333ZM252.801 63.3333H256.439V56.6667H252.801V63.3333ZM78.2047 63.3333H72.7485V66.6667H70.9298V70H74.5672V73.3333H72.7485V76.6667H74.5672V80H76.386V76.6667H80.0234V73.3333H76.386V70H80.0234V66.6667H81.8421V63.3333H80.0234V60H78.2047V63.3333ZM223.702 63.3333H225.52V60H223.702V63.3333ZM38.193 66.6667H40.0117V63.3333H38.193V66.6667ZM49.1053 66.6667H47.2865V70H50.924V73.3333H54.5614V63.3333H49.1053V66.6667ZM181.871 66.6667H178.234V70H176.415V73.3333H180.053V70H183.69V63.3333H181.871V66.6667ZM189.146 73.3333H194.602V66.6667H192.784V70H190.965V63.3333H189.146V73.3333ZM221.883 66.6667H223.702V63.3333H221.883V66.6667ZM225.52 70H227.339V73.3333H229.158V66.6667H230.977V63.3333H225.52V70ZM236.433 66.6667H238.251V63.3333H236.433V66.6667ZM250.982 66.6667H252.801V63.3333H250.982V66.6667ZM41.8304 70H40.0117V73.3333H43.6491V76.6667H45.4678V70H43.6491V66.6667H41.8304V70ZM81.8421 70H83.6608V66.6667H81.8421V70ZM85.4795 70H87.2982V66.6667H85.4795V70ZM174.596 70H176.415V66.6667H174.596V70ZM234.614 70H236.433V66.6667H234.614V70ZM240.07 70H241.889V73.3333H240.07V76.6667H236.433V80H245.526V76.6667H243.708V70H245.526V66.6667H240.07V70ZM67.2924 80H72.7485V76.6667H69.1111V70H67.2924V80ZM83.6608 80H87.2982V76.6667H85.4795V70H83.6608V80ZM169.14 73.3333H167.322V76.6667H172.778V80H174.596V76.6667H176.415V73.3333H172.778V70H169.14V73.3333ZM230.977 73.3333H232.795V70H230.977V73.3333ZM47.2865 76.6667H45.4678V80H54.5614V76.6667H50.924V73.3333H47.2865V76.6667ZM54.5614 76.6667H58.1988V80H60.0175V73.3333H54.5614V76.6667ZM136.404 76.6667H138.222V73.3333H136.404V76.6667ZM180.053 76.6667H176.415V80H181.871V76.6667H183.69V73.3333H180.053V76.6667ZM229.158 76.6667H227.339V80H232.795V76.6667H230.977V73.3333H229.158V76.6667ZM232.795 76.6667H234.614V73.3333H232.795V76.6667ZM263.713 76.6667H265.532V73.3333H263.713V76.6667ZM40.0117 80H43.6491V76.6667H40.0117V80ZM118.216 80H121.854V76.6667H118.216V80ZM132.766 80H134.585V76.6667H132.766V80ZM138.222 80H140.041V76.6667H138.222V80ZM190.965 80H192.784V76.6667H190.965V80ZM261.895 80H263.713V76.6667H261.895V80Z" fill="#383836"/>
</svg>