<svg width="20" height="20" viewBox="0 0 20 20" fill="none" xmlns="http://www.w3.org/2000/svg">
<path fill-rule="evenodd" clip-rule="evenodd" d="M9.86808 5.35767C9.55199 5.35767 9.29511 5.61144 9.29511 5.9237V11.1539C9.29511 11.4662 9.55199 11.719 9.86808 11.719H13.3479C13.664 11.719 13.9199 11.4662 13.9199 11.1539C13.9199 10.8407 13.664 10.5879 13.3479 10.5879H10.441V5.9237C10.441 5.61144 10.1842 5.35767 9.86808 5.35767ZM20 10C20 15.5142 15.4592 20 9.87855 20C5.13534 20 1.0797 16.816 0.0149365 12.2575C-0.0566843 11.9538 0.136214 11.65 0.444661 11.5792C0.746423 11.5123 1.05964 11.6991 1.13222 12.0038C2.07571 16.0453 5.67202 18.8679 9.87855 18.8679C14.828 18.8679 18.855 14.8896 18.855 10C18.855 5.10943 14.828 1.13208 9.87855 1.13208C6.38632 1.13208 3.214 3.1566 1.74911 6.24057H5.1554C5.47149 6.24057 5.72836 6.4934 5.72836 6.80566C5.72836 7.11792 5.47149 7.3717 5.1554 7.3717H0.822819C0.506732 7.3717 0.250808 7.11792 0.250808 6.80566V2.52641C0.250808 2.21415 0.506732 1.96038 0.822819 1.96038C1.13891 1.96038 1.39578 2.21415 1.39578 2.52641V4.54623C3.23787 1.76038 6.41974 0 9.87855 0C15.4592 0 20 4.48585 20 10Z" fill="white"/>
</svg>