<svg width="20" height="20" viewBox="0 0 20 20" fill="none" xmlns="http://www.w3.org/2000/svg">
<path fill-rule="evenodd" clip-rule="evenodd" d="M18.5413 18.326C18.2839 18.6474 17.8819 18.8391 17.466 18.8391H2.53388C2.11802 18.8391 1.71603 18.6474 1.4586 18.326C1.21602 18.0239 1.13285 17.6589 1.22295 17.2978C2.22001 13.3436 5.82903 10.5814 10.0004 10.5814C14.1709 10.5814 17.7799 13.3436 18.7769 17.2978C18.867 17.6589 18.7839 18.0239 18.5413 18.326ZM5.77765 5.29122C5.77765 3.01499 7.67176 1.16186 10.0005 1.16186C12.3283 1.16186 14.2225 3.01499 14.2225 5.29122C14.2225 7.56842 12.3283 9.41961 10.0005 9.41961C7.67176 9.41961 5.77765 7.56842 5.77765 5.29122ZM19.9305 17.0199C19.0354 13.4686 16.2789 10.7683 12.8214 9.80394C14.3729 8.87254 15.4106 7.19853 15.4106 5.29118C15.4106 2.37401 12.9838 0 10.0005 0C7.01625 0 4.58944 2.37401 4.58944 5.29118C4.58944 7.19853 5.6271 8.87254 7.17863 9.80394C3.7211 10.7683 0.964581 13.4686 0.0695047 17.0199C-0.107728 17.7238 0.0576232 18.4615 0.523974 19.0415C1.01112 19.6514 1.7448 20 2.53394 20H17.4661C18.2552 20 18.9889 19.6514 19.476 19.0415C19.9424 18.4615 20.1077 17.7238 19.9305 17.0199Z" fill="#F3F3F3"/>
</svg>