<svg width="16" height="21" viewBox="0 0 16 21" fill="none" xmlns="http://www.w3.org/2000/svg">
<path fill-rule="evenodd" clip-rule="evenodd" d="M14.1991 16.2429C14.0561 18.1607 12.4522 19.6625 10.5474 19.6625H5.45356C3.5478 19.6625 1.94394 18.1607 1.80094 16.2429L1.12238 7.08199C1.11303 6.94143 1.15883 6.80748 1.25323 6.70465C1.34856 6.60183 1.47755 6.54523 1.61681 6.54523H3.83287V8.6423C3.83287 8.95549 4.08336 9.20831 4.39366 9.20831C4.70303 9.20831 4.95445 8.95549 4.95445 8.6423V6.54523H11.0456V8.6423C11.0456 8.95549 11.297 9.20831 11.6073 9.20831C11.9167 9.20831 12.1681 8.95549 12.1681 8.6423V6.54523H14.3842C14.5234 6.54523 14.6515 6.60183 14.7468 6.70465C14.8412 6.80748 14.8879 6.94143 14.8777 7.08199L14.1991 16.2429ZM11.2405 15.8683L8.04577 19.0718C7.98001 19.1378 7.87292 19.1378 7.80674 19.0718L4.61196 15.8683C4.19375 15.4485 3.96314 14.8905 3.96314 14.2966C3.96314 13.7026 4.19375 13.1446 4.61196 12.7248C5.04451 12.2915 5.61196 12.0746 6.17984 12.0746C6.74771 12.0746 7.31517 12.2915 7.74771 12.7248C7.84636 12.8237 8.00615 12.8237 8.10522 12.7248C8.96947 11.8582 10.3759 11.8582 11.2405 12.7248C11.6588 13.1442 11.8894 13.7022 11.8894 14.2966C11.8894 14.8905 11.6588 15.4489 11.2405 15.8683ZM4.95445 5.00197C4.95445 3.30771 6.32091 1.92853 8.00049 1.92853C9.68006 1.92853 11.0456 3.30771 11.0456 5.00197V5.41327H4.95445V5.00197ZM15.5683 5.93491C15.2636 5.60285 14.8318 5.41324 14.3841 5.41324H12.1681V5.00194C12.1681 2.68318 10.2978 0.795532 8.00046 0.795532C5.70215 0.795532 3.83284 2.68318 3.83284 5.00194V5.41324H1.61678C1.16815 5.41324 0.736337 5.60285 0.431641 5.93491C0.126944 6.26603 -0.0291431 6.71506 0.00450437 7.16599L0.683062 16.3278C0.869058 18.8334 2.96455 20.7955 5.45353 20.7955H10.5474C13.0354 20.7955 15.1319 18.8334 15.3169 16.3278L15.9955 7.16599C16.0291 6.71506 15.874 6.26603 15.5683 5.93491Z" fill="white"/>
</svg>