<svg xmlns="http://www.w3.org/2000/svg" width="24" height="24" viewBox="0 0 24 24"><g fill="none" fill-rule="evenodd" transform="translate(0 1)"><path stroke="#443C0F" stroke-width="2" d="M2.3 20.773c.724.138 1.471.227 1.966.227 1.166 0 2.915-.565 3.604-.94.118-.064.37-.225.734-.473l.359-.243.423.095c.756.17 1.577.244 2.542.244 5.378 0 9.892-3.1 10.872-7.416a7.98 7.98 0 0 0 .2-1.782C23 5.262 18.11 1 12.032 1 5.94 1 1 5.271 1 10.485c0 2.424 1.09 4.728 3.009 6.493l.418.385-.18.864-.036.126c-.362 1.033-1.085 1.874-1.91 2.42z"/><circle cx="7" cy="11" r="1" fill="#443C0F"/><circle cx="12" cy="11" r="1" fill="#443C0F"/><circle cx="17" cy="11" r="1" fill="#443C0F"/></g></svg>