<svg xmlns="http://www.w3.org/2000/svg" width="24" height="24" viewBox="0 0 24 24"><g fill="none" fill-rule="evenodd"><path d="M0 0h34v34H0z"/><path fill="#000" fill-rule="nonzero" d="M8.094 12.813C4.527 14.342 2 17.883 2 22c.213.529.556.793 1.028.793.473 0 .797-.264.972-.793a7.98 7.98 0 0 1 3.813-6.813A4.537 4.537 0 0 0 12 18a4.537 4.537 0 0 0 4.188-2.813A7.98 7.98 0 0 1 20 22c.148.529.48.793.996.793.517 0 .851-.264 1.004-.793 0-4.117-2.527-7.656-6.094-9.188-2.123-.918-5.822-.836-7.812 0zM12 14c.82 0 1.602.117 2.344.344a2.485 2.485 0 0 1-4.688 0A7.985 7.985 0 0 1 12 14z"/><path stroke="#000" stroke-width="2" d="M12 3c1.835 0 3 .954 3 3.111S13.473 10 12 10 9 8.268 9 6.111 10.165 3 12 3z"/></g></svg>