<?xml version="1.0" encoding="UTF-8"?>
<svg width="20px" height="20px" viewBox="0 0 20 20" version="1.1" xmlns="http://www.w3.org/2000/svg" xmlns:xlink="http://www.w3.org/1999/xlink">
    <!-- Generator: Sketch 58 (84663) - https://sketch.com -->
    <title>icons/20p/star</title>
    <desc>Created with Sketch.</desc>
    <g id="Symbols" stroke="none" stroke-width="1" fill="none" fill-rule="evenodd">
        <g id="icons/20p/star">
            <g>
                <rect id="Rectangle" x="0" y="0" width="20" height="20"></rect>
                <path d="M10.5909395,3.05843931 L12.3967823,7.0076807 L12.3967823,7.0076807 L12.5818346,7.38885999 L12.9982023,7.43370461 L17.4181956,7.88133616 C17.473143,7.88690092 17.5131755,7.93595572 17.5076108,7.99090313 C17.5050531,8.0161577 17.4929871,8.03949453 17.4738593,8.05618173 L14.1779108,10.9315851 L14.1779108,10.9315851 L13.8540693,11.2230751 L13.9465954,11.6266767 L14.8705603,15.8276337 C14.8824237,15.881573 14.8483146,15.9349166 14.7943754,15.9467801 C14.7706006,15.9520092 14.7457349,15.9483865 14.7244405,15.9365913 L10.8701008,13.8016409 L10.8701008,13.8016409 L10.4999962,13.5774178 L10.1298916,13.8016409 L6.27555187,15.9365913 C6.22723975,15.9633518 6.16638138,15.9458807 6.1396209,15.8975686 C6.12782573,15.8762741 6.12420304,15.8514084 6.12943209,15.8276337 L7.05339694,11.6266767 L7.05339694,11.6266767 L7.14592309,11.2230751 L6.82208155,10.9315851 L3.52613304,8.05618173 C3.48451591,8.01987472 3.4802112,7.95670472 3.51651821,7.91508759 C3.53320541,7.89595979 3.55654223,7.8838938 3.58179681,7.88133616 L8.00179002,7.43370461 L8.00179002,7.43370461 L8.41815771,7.38885999 L8.60321002,7.0076807 L10.4090529,3.05843931 C10.4320196,3.0082127 10.4913546,2.98611425 10.5415812,3.00908103 C10.5634286,3.01907102 10.5809495,3.03659196 10.5909395,3.05843931 Z" id="Shape-Copy-2" fill="#3F3F3F" fill-rule="nonzero"></path>
            </g>
        </g>
    </g>
</svg>