<svg width="156" height="46" viewBox="0 0 156 46" xmlns="http://www.w3.org/2000/svg"><g fill="none" fill-rule="evenodd"><rect stroke="#E5E5E5" x=".5" y=".5" width="155" height="45" rx="4"/><path d="M123.173 34.477h2.157v-14.45h-2.157v14.45zm19.429-9.245l-2.473 6.265h-.074l-2.566-6.265h-2.324l3.848 8.756-2.193 4.872h2.25L145 25.232h-2.398zm-12.234 7.604c-.706 0-1.692-.353-1.692-1.227 0-1.116 1.227-1.543 2.287-1.543.948 0 1.394.204 1.97.483a2.615 2.615 0 0 1-2.565 2.287zm.26-7.92c-1.561 0-3.179.688-3.848 2.212l1.915.8c.41-.8 1.171-1.06 1.97-1.06 1.116 0 2.25.67 2.269 1.86v.148c-.39-.223-1.227-.558-2.25-.558-2.063 0-4.164 1.134-4.164 3.254 0 1.933 1.691 3.179 3.588 3.179 1.45 0 2.25-.65 2.752-1.413h.074v1.115h2.082v-5.54c0-2.566-1.915-3.997-4.387-3.997zm-13.33 2.075h-3.067v-4.954h3.067c1.613 0 2.529 1.335 2.529 2.477 0 1.12-.916 2.477-2.529 2.477zm-.056-6.965h-5.168v14.451h2.157v-5.475h3.011c2.391 0 4.741-1.73 4.741-4.488 0-2.757-2.35-4.488-4.74-4.488zM89.058 32.838c-1.49 0-2.737-1.247-2.737-2.96 0-1.732 1.248-2.999 2.737-2.999 1.472 0 2.626 1.267 2.626 2.998 0 1.714-1.154 2.961-2.626 2.961zm2.477-6.797h-.074c-.485-.577-1.416-1.098-2.59-1.098-2.457 0-4.71 2.16-4.71 4.934 0 2.757 2.253 4.898 4.71 4.898 1.174 0 2.105-.521 2.59-1.117h.074v.708c0 1.88-1.005 2.886-2.626 2.886-1.322 0-2.141-.95-2.476-1.75l-1.882.782c.54 1.304 1.974 2.905 4.358 2.905 2.533 0 4.675-1.49 4.675-5.121V25.24h-2.049v.801zm3.538 8.436h2.161V20.026h-2.16v14.451zm5.346-4.767c-.056-1.9 1.47-2.868 2.57-2.868.856 0 1.583.428 1.825 1.043l-4.395 1.825zm6.704-1.64c-.41-1.098-1.658-3.127-4.209-3.127-2.533 0-4.637 1.992-4.637 4.916 0 2.756 2.086 4.916 4.88 4.916 2.253 0 3.556-1.378 4.096-2.178l-1.676-1.118c-.558.82-1.322 1.36-2.42 1.36-1.1 0-1.882-.503-2.385-1.49l6.574-2.72-.223-.558zm-52.376-1.619v2.086h4.991c-.149 1.173-.54 2.03-1.136 2.626-.726.726-1.862 1.527-3.855 1.527-3.073 0-5.475-2.477-5.475-5.55s2.402-5.55 5.475-5.55c1.658 0 2.868.652 3.762 1.49l1.472-1.471c-1.248-1.192-2.906-2.105-5.234-2.105-4.209 0-7.747 3.427-7.747 7.636s3.538 7.635 7.747 7.635c2.273 0 3.986-.745 5.326-2.141 1.379-1.378 1.807-3.315 1.807-4.88 0-.484-.037-.93-.112-1.303h-7.02zm12.807 6.387c-1.49 0-2.775-1.228-2.775-2.98 0-1.769 1.285-2.979 2.775-2.979s2.775 1.21 2.775 2.98c0 1.75-1.285 2.98-2.775 2.98zm0-7.895c-2.72 0-4.935 2.066-4.935 4.916 0 2.83 2.216 4.916 4.935 4.916 2.72 0 4.935-2.085 4.935-4.916 0-2.85-2.216-4.916-4.935-4.916zm10.766 7.895c-1.49 0-2.774-1.228-2.774-2.98 0-1.769 1.284-2.979 2.774-2.979s2.775 1.21 2.775 2.98c0 1.75-1.285 2.98-2.775 2.98zm0-7.895c-2.719 0-4.935 2.066-4.935 4.916 0 2.83 2.216 4.916 4.935 4.916 2.72 0 4.936-2.085 4.936-4.916 0-2.85-2.217-4.916-4.936-4.916z" fill="#B8B8B8"/><text font-family="YSText-Medium, YS Text" font-size="8" font-weight="400" fill="#B8B8B8" transform="translate(11 8)"><tspan x="36" y="7">Загрузите на</tspan></text><path d="M12.31 8l13.358 13.564 3.663-3.746L13.14 8.256A1.744 1.744 0 0 0 12.31 8zm-1.117.63c-.12.22-.193.479-.193.77v26.358c0 .212.043.402.116.572l13.666-13.88-13.59-13.82zm19.256 9.838l-3.913 3.983 3.913 3.962 4.78-2.8c.68-.4.776-.91.77-1.182-.006-.449-.283-.867-.75-1.124-.408-.224-3.432-2.025-4.8-2.839zm-4.78 4.87L12.194 37c.224-.012.467-.062.694-.197l11.199-6.624 5.262-3.095-3.682-3.746z" fill="#E5E5E5" fill-rule="nonzero"/></g></svg>