<?xml version="1.0" encoding="UTF-8"?>
<svg width="32px" height="32px" viewBox="0 0 32 32" version="1.1" xmlns="http://www.w3.org/2000/svg" xmlns:xlink="http://www.w3.org/1999/xlink">
    <!-- Generator: Sketch 58 (84663) - https://sketch.com -->
    <title>tw</title>
    <desc>Created with Sketch.</desc>
    <g id="Эксперименты" stroke="none" stroke-width="1" fill="none" fill-rule="evenodd">
        <g id="v" transform="translate(-181.000000, -61.000000)">
            <g id="tw" transform="translate(181.000000, 61.000000)">
                <rect id="Rectangle-Copy-3" x="0" y="0" width="32" height="32"></rect>
                <g id="Twitter_Social_Icon_Circle_Color" fill-rule="nonzero">
                    <g id="Dark_Blue" fill="#1DA1F2">
                        <circle id="Oval" cx="16" cy="16" r="16"></circle>
                    </g>
                    <g id="Logo__x2014__FIXED" transform="translate(7.120000, 9.120000)" fill="#FFFFFF">
                        <path d="M5.952,15.32 C13.048,15.32 16.928,9.44 16.928,4.344 C16.928,4.176 16.928,4.008 16.92,3.848 C17.672,3.304 18.328,2.624 18.848,1.848 C18.16,2.152 17.416,2.36 16.632,2.456 C17.432,1.976 18.04,1.224 18.328,0.32 C17.584,0.76 16.76,1.08 15.88,1.256 C15.176,0.504 14.176,0.04 13.064,0.04 C10.936,0.04 9.208,1.768 9.208,3.896 C9.208,4.2 9.24,4.496 9.312,4.776 C6.104,4.616 3.264,3.08 1.36,0.744 C1.032,1.312 0.84,1.976 0.84,2.68 C0.84,4.016 1.52,5.2 2.56,5.888 C1.928,5.872 1.336,5.696 0.816,5.408 C0.816,5.424 0.816,5.44 0.816,5.456 C0.816,7.328 2.144,8.88 3.912,9.24 C3.592,9.328 3.248,9.376 2.896,9.376 C2.648,9.376 2.408,9.352 2.168,9.304 C2.656,10.84 4.08,11.952 5.768,11.984 C4.448,13.016 2.784,13.632 0.976,13.632 C0.664,13.632 0.36,13.616 0.056,13.576 C1.744,14.68 3.776,15.32 5.952,15.32" id="Path"></path>
                    </g>
                </g>
            </g>
        </g>
    </g>
</svg>