<?xml version="1.0" encoding="UTF-8"?>
<svg width="32px" height="32px" viewBox="0 0 32 32" version="1.1" xmlns="http://www.w3.org/2000/svg" xmlns:xlink="http://www.w3.org/1999/xlink">
    <!-- Generator: Sketch 58 (84663) - https://sketch.com -->
    <title>vk</title>
    <desc>Created with Sketch.</desc>
    <g id="Эксперименты" stroke="none" stroke-width="1" fill="none" fill-rule="evenodd">
        <g id="v" transform="translate(-31.000000, -61.000000)">
            <g id="vk" transform="translate(31.000000, 61.000000)">
                <rect id="Rectangle" x="0" y="0" width="32" height="32"></rect>
                <g id="VK_Blue_Logo">
                    <path d="M11.1888112,0.201398601 L20.9230769,0.201398601 C29.806993,0.201398601 31.9104895,2.3048951 31.9104895,11.1888112 L31.9104895,20.9230769 C31.9104895,29.806993 29.806993,31.9104895 20.9230769,31.9104895 L11.1888112,31.9104895 C2.3048951,31.9104895 0.201398601,29.806993 0.201398601,20.9230769 L0.201398601,11.1888112 C0.201398601,2.3048951 2.3048951,0.201398601 11.1888112,0.201398601" id="Path" fill="#4680C2"></path>
                    <path d="M26.1594406,11.1216783 C26.3160839,10.6293706 26.1594406,10.2713287 25.4657343,10.2713287 L23.1608392,10.2713287 C22.579021,10.2713287 22.3104895,10.5846154 22.1538462,10.9202797 C22.1538462,10.9202797 20.9678322,13.7846154 19.3118881,15.641958 C18.7748252,16.179021 18.5286713,16.358042 18.2377622,16.358042 C18.0811189,16.358042 17.8797203,16.179021 17.8797203,15.6867133 L17.8797203,11.0993007 C17.8797203,10.5174825 17.7006993,10.248951 17.2083916,10.248951 L13.5832168,10.248951 C13.2251748,10.248951 13.0013986,10.5174825 13.0013986,10.786014 C13.0013986,11.3454545 13.8293706,11.4797203 13.9188811,13.0461538 L13.9188811,16.4475524 C13.9188811,17.186014 13.7846154,17.3202797 13.4937063,17.3202797 C12.7104895,17.3202797 10.8083916,14.4335664 9.66713287,11.1440559 C9.44335664,10.4951049 9.21958042,10.248951 8.63776224,10.248951 L6.31048951,10.248951 C5.63916084,10.248951 5.52727273,10.5622378 5.52727273,10.8979021 C5.52727273,11.5020979 6.31048951,14.5454545 9.17482517,18.5734266 C11.0769231,21.3258741 13.7846154,22.8027972 16.2237762,22.8027972 C17.7006993,22.8027972 17.8797203,22.4671329 17.8797203,21.9076923 L17.8797203,19.8265734 C17.8797203,19.1552448 18.013986,19.0433566 18.4839161,19.0433566 C18.8195804,19.0433566 19.4237762,19.2223776 20.7888112,20.5426573 C22.3552448,22.1090909 22.6237762,22.8251748 23.4965035,22.8251748 L25.8013986,22.8251748 C26.4727273,22.8251748 26.786014,22.4895105 26.606993,21.8405594 C26.4055944,21.1916084 25.6447552,20.2517483 24.6601399,19.1328671 C24.1230769,18.5062937 23.3174825,17.8125874 23.0713287,17.4769231 C22.7356643,17.0293706 22.8251748,16.8503497 23.0713287,16.4475524 C23.048951,16.4475524 25.8685315,12.4643357 26.1594406,11.1216783" id="Path" fill="#FFFFFF"></path>
                </g>
            </g>
        </g>
    </g>
</svg>